<svg width="448" height="100" viewBox="0 0 448 100" fill="none" xmlns="http://www.w3.org/2000/svg">
<rect x="5" y="5" width="438" height="90" rx="15" stroke="#F3D28D" stroke-width="10"/>
<path d="M163.156 66.1328L164.352 60.3672C165.664 60.8203 167.133 61.1953 168.758 61.4922C170.398 61.7734 171.969 61.9141 173.469 61.9141C174.266 61.9141 175 61.8516 175.672 61.7266C176.359 61.6016 176.938 61.3828 177.406 61.0703C177.891 60.7422 178.266 60.2891 178.531 59.7109C178.812 59.1328 178.953 58.4141 178.953 57.5547C178.953 56.8828 178.852 56.3047 178.648 55.8203C178.461 55.3359 178.141 54.9141 177.688 54.5547C177.25 54.1797 176.664 53.8438 175.93 53.5469C175.195 53.2344 174.266 52.9219 173.141 52.6094C171.578 52.1562 170.188 51.6641 168.969 51.1328C167.75 50.6016 166.734 49.9375 165.922 49.1406C165.109 48.3438 164.484 47.3828 164.047 46.2578C163.609 45.1172 163.391 43.7109 163.391 42.0391C163.391 38.3984 164.383 35.8281 166.367 34.3281C168.352 32.8125 171.297 32.0547 175.203 32.0547C176.859 32.0547 178.406 32.2031 179.844 32.5C181.297 32.7812 182.789 33.2266 184.32 33.8359L183.5 39.3438C182.312 38.8594 181.016 38.4844 179.609 38.2188C178.203 37.9531 176.781 37.8203 175.344 37.8203C174.609 37.8203 173.938 37.8594 173.328 37.9375C172.719 38.0156 172.188 38.1953 171.734 38.4766C171.297 38.7422 170.945 39.1172 170.68 39.6016C170.43 40.0703 170.305 40.7109 170.305 41.5234C170.305 42.3203 170.43 42.9922 170.68 43.5391C170.945 44.0703 171.336 44.5312 171.852 44.9219C172.367 45.2969 173 45.6328 173.75 45.9297C174.5 46.2109 175.383 46.5 176.398 46.7969C178.164 47.3125 179.656 47.8438 180.875 48.3906C182.094 48.9219 183.07 49.5703 183.805 50.3359C184.539 51.1016 185.07 52.0156 185.398 53.0781C185.742 54.1406 185.914 55.4531 185.914 57.0156C185.914 58.9375 185.68 60.5625 185.211 61.8906C184.742 63.2188 183.984 64.3047 182.938 65.1484C181.906 65.9922 180.586 66.6094 178.977 67C177.367 67.3906 175.406 67.5859 173.094 67.5859C171.109 67.5859 169.305 67.4531 167.68 67.1875C166.07 66.9375 164.562 66.5859 163.156 66.1328ZM190.695 76.3984V42.0859H196.32V45.0156H196.555C197.227 44.0312 198.133 43.2031 199.273 42.5312C200.414 41.8594 201.859 41.5234 203.609 41.5234C206.453 41.5234 208.57 42.5156 209.961 44.5C211.367 46.4688 212.07 49.6641 212.07 54.0859C212.07 56.1641 211.898 58.0312 211.555 59.6875C211.227 61.3281 210.648 62.7422 209.82 63.9297C209.008 65.1172 207.914 66.0234 206.539 66.6484C205.164 67.2734 203.453 67.5859 201.406 67.5859C200.578 67.5859 199.758 67.5312 198.945 67.4219C198.148 67.3281 197.484 67.1719 196.953 66.9531V76.3984H190.695ZM196.953 61.4688C197.406 61.6562 197.953 61.8203 198.594 61.9609C199.25 62.0859 199.898 62.1484 200.539 62.1484C201.695 62.1484 202.617 61.9531 203.305 61.5625C203.992 61.1562 204.5 60.6016 204.828 59.8984C205.172 59.1953 205.391 58.3672 205.484 57.4141C205.578 56.4453 205.625 55.3984 205.625 54.2734C205.625 53.3828 205.594 52.5 205.531 51.625C205.469 50.7344 205.297 49.9375 205.016 49.2344C204.75 48.5312 204.344 47.9766 203.797 47.5703C203.266 47.1484 202.531 46.9375 201.594 46.9375C200.531 46.9375 199.602 47.1797 198.805 47.6641C198.008 48.1328 197.391 48.7344 196.953 49.4688V61.4688ZM216.359 60.1797C216.359 58.6172 216.609 57.3125 217.109 56.2656C217.609 55.2031 218.297 54.3438 219.172 53.6875C220.047 53.0312 221.094 52.5703 222.312 52.3047C223.531 52.0234 224.859 51.8828 226.297 51.8828C227.062 51.8828 227.719 51.9141 228.266 51.9766C228.812 52.0391 229.391 52.1328 230 52.2578C230 51.2266 229.93 50.375 229.789 49.7031C229.664 49.0156 229.43 48.4531 229.086 48.0156C228.758 47.5781 228.297 47.2656 227.703 47.0781C227.125 46.8906 226.383 46.7969 225.477 46.7969C224.227 46.7969 223.062 46.9297 221.984 47.1953C220.922 47.4453 219.828 47.8516 218.703 48.4141L217.695 43.3281C219.039 42.6875 220.453 42.2266 221.938 41.9453C223.438 41.6641 225 41.5234 226.625 41.5234C228.422 41.5234 229.93 41.7188 231.148 42.1094C232.367 42.4844 233.352 43.0781 234.102 43.8906C234.852 44.7031 235.391 45.7422 235.719 47.0078C236.062 48.2734 236.234 49.7656 236.234 51.4844V61.2812C236.234 61.8594 236.312 62.2656 236.469 62.5C236.625 62.7188 236.914 62.8281 237.336 62.8281C237.617 62.8281 237.891 62.7812 238.156 62.6875L238.672 66.9531C238.25 67.1406 237.75 67.2891 237.172 67.3984C236.609 67.5234 236.055 67.5859 235.508 67.5859C234.102 67.5859 233.016 67.3203 232.25 66.7891C231.484 66.2578 230.938 65.4297 230.609 64.3047H230.375C229.672 65.2891 228.758 66.0859 227.633 66.6953C226.523 67.2891 225.148 67.5859 223.508 67.5859C221.242 67.5859 219.484 66.9766 218.234 65.7578C216.984 64.5391 216.359 62.6797 216.359 60.1797ZM222.734 59.7578C222.734 60.7422 222.961 61.4375 223.414 61.8438C223.867 62.2344 224.539 62.4297 225.43 62.4297C226.383 62.4297 227.242 62.25 228.008 61.8906C228.789 61.5156 229.453 61.0078 230 60.3672V56.4766C229.328 56.2891 228.492 56.1953 227.492 56.1953C226.023 56.1953 224.859 56.4297 224 56.8984C223.156 57.3672 222.734 58.3203 222.734 59.7578ZM242.094 54.7188C242.094 50.2344 243.031 46.9141 244.906 44.7578C246.781 42.6016 249.719 41.5234 253.719 41.5234C255 41.5234 256.133 41.625 257.117 41.8281C258.117 42.0312 259.078 42.3281 260 42.7188L259.297 47.7109C258.656 47.4609 257.953 47.2656 257.188 47.125C256.438 46.9688 255.57 46.8906 254.586 46.8906C253.398 46.8906 252.422 47.0391 251.656 47.3359C250.891 47.6172 250.273 48.0625 249.805 48.6719C249.336 49.2812 249.008 50.0625 248.82 51.0156C248.633 51.9688 248.539 53.1406 248.539 54.5312C248.539 56.0312 248.641 57.2812 248.844 58.2812C249.047 59.2656 249.391 60.0469 249.875 60.625C250.359 61.1875 250.992 61.5938 251.773 61.8438C252.555 62.0781 253.523 62.1953 254.68 62.1953C255.602 62.1953 256.469 62.1328 257.281 62.0078C258.109 61.8828 258.859 61.7031 259.531 61.4688L260.352 66.3672C259.32 66.7891 258.211 67.0938 257.023 67.2812C255.852 67.4844 254.656 67.5859 253.438 67.5859C249.562 67.5859 246.703 66.5625 244.859 64.5156C243.016 62.4531 242.094 59.1875 242.094 54.7188ZM263.844 54.8125C263.844 53.0469 263.992 51.3672 264.289 49.7734C264.602 48.1641 265.164 46.7578 265.977 45.5547C266.805 44.3359 267.922 43.3594 269.328 42.625C270.734 41.8906 272.539 41.5234 274.742 41.5234C277.008 41.5234 278.805 41.9062 280.133 42.6719C281.477 43.4375 282.484 44.4844 283.156 45.8125C283.828 47.1406 284.258 48.6875 284.445 50.4531C284.633 52.2031 284.727 54.0703 284.727 56.0547V56.5938H270.289C270.289 57.7188 270.391 58.6484 270.594 59.3828C270.797 60.1016 271.133 60.6797 271.602 61.1172C272.07 61.5547 272.68 61.8672 273.43 62.0547C274.18 62.2422 275.102 62.3359 276.195 62.3359C277.414 62.3359 278.609 62.2422 279.781 62.0547C280.969 61.8672 282.047 61.6094 283.016 61.2812L283.672 66.0391C282.641 66.4922 281.383 66.8594 279.898 67.1406C278.414 67.4375 276.859 67.5859 275.234 67.5859C273.188 67.5859 271.438 67.3281 269.984 66.8125C268.547 66.2969 267.375 65.5234 266.469 64.4922C265.562 63.4453 264.898 62.125 264.477 60.5312C264.055 58.9219 263.844 57.0156 263.844 54.8125ZM270.242 52.0703H278.539C278.539 51.3047 278.492 50.5938 278.398 49.9375C278.305 49.2812 278.109 48.7031 277.812 48.2031C277.531 47.7031 277.125 47.3125 276.594 47.0312C276.062 46.75 275.367 46.6094 274.508 46.6094C273.68 46.6094 273 46.7422 272.469 47.0078C271.938 47.2734 271.508 47.6484 271.18 48.1328C270.867 48.6172 270.641 49.1953 270.5 49.8672C270.359 50.5391 270.273 51.2734 270.242 52.0703Z" fill="#F3D28D"/>
</svg>
