<svg width="690" height="222" viewBox="0 0 690 222" fill="none" xmlns="http://www.w3.org/2000/svg">
<rect x="121" y="11" width="90" height="90" rx="15" stroke="#F3D28D" stroke-width="10"/>
<path d="M144.555 38.6406H151.305L156.508 65.6172H156.742L162.109 38.6406H170.664L175.562 65.6172H175.797L180.977 38.6406H187.469L180.016 73H171.32L166.234 46.0703H166L160.82 73H151.797L144.555 38.6406Z" fill="#F3D28D"/>
<rect x="5" y="127" width="90" height="90" rx="15" stroke="#F3D28D" stroke-width="10"/>
<path d="M35.0703 189L45.5 154.641H54.4766L64.9297 189H57.7344L55.7188 181.758H44L42.0781 189H35.0703ZM45.5469 176.133H54.1719L49.9531 160.688H49.7188L45.5469 176.133Z" fill="#F3D28D"/>
<rect x="121" y="127" width="90" height="90" rx="15" stroke="#F3D28D" stroke-width="10"/>
<path d="M154.961 188.133L156.156 182.367C157.469 182.82 158.938 183.195 160.562 183.492C162.203 183.773 163.773 183.914 165.273 183.914C166.07 183.914 166.805 183.852 167.477 183.727C168.164 183.602 168.742 183.383 169.211 183.07C169.695 182.742 170.07 182.289 170.336 181.711C170.617 181.133 170.758 180.414 170.758 179.555C170.758 178.883 170.656 178.305 170.453 177.82C170.266 177.336 169.945 176.914 169.492 176.555C169.055 176.18 168.469 175.844 167.734 175.547C167 175.234 166.07 174.922 164.945 174.609C163.383 174.156 161.992 173.664 160.773 173.133C159.555 172.602 158.539 171.938 157.727 171.141C156.914 170.344 156.289 169.383 155.852 168.258C155.414 167.117 155.195 165.711 155.195 164.039C155.195 160.398 156.188 157.828 158.172 156.328C160.156 154.812 163.102 154.055 167.008 154.055C168.664 154.055 170.211 154.203 171.648 154.5C173.102 154.781 174.594 155.227 176.125 155.836L175.305 161.344C174.117 160.859 172.82 160.484 171.414 160.219C170.008 159.953 168.586 159.82 167.148 159.82C166.414 159.82 165.742 159.859 165.133 159.938C164.523 160.016 163.992 160.195 163.539 160.477C163.102 160.742 162.75 161.117 162.484 161.602C162.234 162.07 162.109 162.711 162.109 163.523C162.109 164.32 162.234 164.992 162.484 165.539C162.75 166.07 163.141 166.531 163.656 166.922C164.172 167.297 164.805 167.633 165.555 167.93C166.305 168.211 167.188 168.5 168.203 168.797C169.969 169.312 171.461 169.844 172.68 170.391C173.898 170.922 174.875 171.57 175.609 172.336C176.344 173.102 176.875 174.016 177.203 175.078C177.547 176.141 177.719 177.453 177.719 179.016C177.719 180.938 177.484 182.562 177.016 183.891C176.547 185.219 175.789 186.305 174.742 187.148C173.711 187.992 172.391 188.609 170.781 189C169.172 189.391 167.211 189.586 164.898 189.586C162.914 189.586 161.109 189.453 159.484 189.188C157.875 188.938 156.367 188.586 154.961 188.133Z" fill="#F3D28D"/>
<rect x="237" y="127" width="90" height="90" rx="15" stroke="#F3D28D" stroke-width="10"/>
<path d="M269.93 189V154.641H280.969C283.906 154.641 286.336 154.945 288.258 155.555C290.18 156.148 291.695 157.117 292.805 158.461C293.93 159.805 294.719 161.57 295.172 163.758C295.625 165.93 295.852 168.57 295.852 171.68C295.852 174.82 295.594 177.484 295.078 179.672C294.562 181.859 293.719 183.648 292.547 185.039C291.391 186.43 289.867 187.438 287.977 188.062C286.086 188.688 283.781 189 281.062 189H269.93ZM276.586 183.188H281.438C282.812 183.188 283.969 183.047 284.906 182.766C285.859 182.469 286.641 181.898 287.25 181.055C287.859 180.211 288.297 179.039 288.562 177.539C288.844 176.039 288.984 174.055 288.984 171.586C288.984 169.352 288.836 167.508 288.539 166.055C288.258 164.586 287.812 163.445 287.203 162.633C286.594 161.805 285.805 161.234 284.836 160.922C283.883 160.594 282.734 160.43 281.391 160.43H276.586V183.188Z" fill="#F3D28D"/>
<rect x="568" y="216.916" width="211.916" height="117" rx="58.5" transform="rotate(-90 568 216.916)" stroke="#F3D28D" stroke-width="10"/>
<rect x="620.137" y="51.1473" width="29.4368" height="12.7263" rx="6.36316" transform="rotate(-90 620.137 51.1473)" fill="#F3D28D" stroke="#F3D28D" stroke-width="10"/>
<rect x="623.158" width="5.34737" height="72.1895" fill="#F3D28D"/>
<rect x="563" y="75.5316" width="5.34737" height="127" transform="rotate(-90 563 75.5316)" fill="#F3D28D"/>
<rect x="384" y="111.347" width="10" height="127" transform="rotate(-90 384 111.347)" fill="#F3D28D"/>
<rect x="443" y="43" width="10" height="127" fill="#F3D28D"/>
</svg>
