<svg width="332" height="100" viewBox="0 0 332 100" fill="none" xmlns="http://www.w3.org/2000/svg">
<rect x="5" y="5" width="322" height="90" rx="15" stroke="#F3D28D" stroke-width="10"/>
<path d="M117.789 66.1328L118.984 60.3672C120.297 60.8203 121.766 61.1953 123.391 61.4922C125.031 61.7734 126.602 61.9141 128.102 61.9141C128.898 61.9141 129.633 61.8516 130.305 61.7266C130.992 61.6016 131.57 61.3828 132.039 61.0703C132.523 60.7422 132.898 60.2891 133.164 59.7109C133.445 59.1328 133.586 58.4141 133.586 57.5547C133.586 56.8828 133.484 56.3047 133.281 55.8203C133.094 55.3359 132.773 54.9141 132.32 54.5547C131.883 54.1797 131.297 53.8438 130.562 53.5469C129.828 53.2344 128.898 52.9219 127.773 52.6094C126.211 52.1562 124.82 51.6641 123.602 51.1328C122.383 50.6016 121.367 49.9375 120.555 49.1406C119.742 48.3438 119.117 47.3828 118.68 46.2578C118.242 45.1172 118.023 43.7109 118.023 42.0391C118.023 38.3984 119.016 35.8281 121 34.3281C122.984 32.8125 125.93 32.0547 129.836 32.0547C131.492 32.0547 133.039 32.2031 134.477 32.5C135.93 32.7812 137.422 33.2266 138.953 33.8359L138.133 39.3438C136.945 38.8594 135.648 38.4844 134.242 38.2188C132.836 37.9531 131.414 37.8203 129.977 37.8203C129.242 37.8203 128.57 37.8594 127.961 37.9375C127.352 38.0156 126.82 38.1953 126.367 38.4766C125.93 38.7422 125.578 39.1172 125.312 39.6016C125.062 40.0703 124.938 40.7109 124.938 41.5234C124.938 42.3203 125.062 42.9922 125.312 43.5391C125.578 44.0703 125.969 44.5312 126.484 44.9219C127 45.2969 127.633 45.6328 128.383 45.9297C129.133 46.2109 130.016 46.5 131.031 46.7969C132.797 47.3125 134.289 47.8438 135.508 48.3906C136.727 48.9219 137.703 49.5703 138.438 50.3359C139.172 51.1016 139.703 52.0156 140.031 53.0781C140.375 54.1406 140.547 55.4531 140.547 57.0156C140.547 58.9375 140.312 60.5625 139.844 61.8906C139.375 63.2188 138.617 64.3047 137.57 65.1484C136.539 65.9922 135.219 66.6094 133.609 67C132 67.3906 130.039 67.5859 127.727 67.5859C125.742 67.5859 123.938 67.4531 122.312 67.1875C120.703 66.9375 119.195 66.5859 117.789 66.1328ZM145.328 67V32.6406H151.586V44.2891H151.82C152.711 43.3984 153.742 42.7188 154.914 42.25C156.086 41.7656 157.469 41.5234 159.062 41.5234C160.5 41.5234 161.695 41.7266 162.648 42.1328C163.617 42.5234 164.391 43.1016 164.969 43.8672C165.547 44.6328 165.953 45.5781 166.188 46.7031C166.438 47.8125 166.562 49.0938 166.562 50.5469V67H160.305V51.3906C160.305 49.6875 160.055 48.5234 159.555 47.8984C159.07 47.2578 158.25 46.9375 157.094 46.9375C156.141 46.9375 155.195 47.125 154.258 47.5C153.336 47.8594 152.445 48.5156 151.586 49.4688V67H145.328ZM172.891 37.9609V31.4219H179.336V37.9609H172.891ZM172.984 67V42.0859H179.242V67H172.984ZM183.578 47.3125L184.164 42.0859H186.977V40.3047C186.977 37.6172 187.578 35.5703 188.781 34.1641C189.984 32.7578 191.977 32.0547 194.758 32.0547C195.742 32.0547 196.68 32.1484 197.57 32.3359C198.477 32.5078 199.25 32.75 199.891 33.0625L199.023 37.8203C198.539 37.6641 198.039 37.5312 197.523 37.4219C197.023 37.2969 196.484 37.2344 195.906 37.2344C195.297 37.2344 194.812 37.3203 194.453 37.4922C194.109 37.6484 193.844 37.8516 193.656 38.1016C193.469 38.3516 193.352 38.6484 193.305 38.9922C193.258 39.3203 193.234 39.6797 193.234 40.0703V42.0859H198.414V47.3125H193.234V67H186.977V47.3125H183.578ZM199.891 47.3125L200.453 42.0859H203.148V36.2734L209.383 35.2656V42.0859H214.375V47.3125H209.383V59.5703C209.383 60.1797 209.43 60.6641 209.523 61.0234C209.633 61.3672 209.781 61.6328 209.969 61.8203C210.156 62.0078 210.383 62.1328 210.648 62.1953C210.93 62.2578 211.266 62.2891 211.656 62.2891C212.641 62.2891 213.547 62.1328 214.375 61.8203L215.289 66.4609C214.523 66.8516 213.695 67.1328 212.805 67.3047C211.93 67.4922 211.031 67.5859 210.109 67.5859C207.641 67.5859 205.859 67.0078 204.766 65.8516C203.688 64.6953 203.148 62.7578 203.148 60.0391V47.3125H199.891Z" fill="#F3D28D"/>
</svg>
